<svg version="1.1" viewBox="0.0 0.0 64.0 64.0" fill="none" stroke="none" stroke-linecap="square" stroke-miterlimit="10" xmlns:xlink="http://www.w3.org/1999/xlink" xmlns="http://www.w3.org/2000/svg"><clipPath id="p.0"><path d="m0 0l64.0 0l0 64.0l-64.0 0l0 -64.0z" clip-rule="nonzero"/></clipPath><g clip-path="url(#p.0)"><path fill="#000000" fill-opacity="0.0" d="m0 0l64.0 0l0 64.0l-64.0 0z" fill-rule="evenodd"/><path fill="#000000" fill-opacity="0.0" d="m-2.5301838 3.984252l68.125984 0l0 56.031494l-68.125984 0z" fill-rule="evenodd"/><path fill="#000000" d="m15.790987 29.538q2.515625 0.484375 4.265625 2.578127q1.75 2.078125 1.75 4.84375q0 2.265625 -1.140625 4.078125q-1.125 1.8125 -3.296875 2.859375q-2.171875 1.046875 -5.203125 1.046875l-10.328125 0l0 -29.8125l10.03125 0q4.515625 0 6.875 2.093749q2.375 2.078125 2.375 5.40625q0 2.78125 -1.5 4.515625q-1.484375 1.71875 -3.828125 2.390625zm-10.96875 -1.234375l6.953125 0q3.03125 0 4.671875 -1.421875q1.65625 -1.4375 1.65625 -3.953125q0 -2.46875 -1.65625 -3.875q-1.640625 -1.40625 -4.796875 -1.40625l-6.828125 0l0 10.65625zm7.125 14.125002q3.25 0 5.0625 -1.53125q1.8125 -1.546875 1.8125 -4.234375q0 -2.6875 -1.90625 -4.28125q-1.890625 -1.5937519 -5.09375 -1.5937519l-7.0 0l0 11.640627l7.125 0zm51.528244 -27.296875l-8.437496 29.8125l-3.328125 0l-7.515625 -25.421877l-7.671875 25.421877l-3.234375 0.046875l-8.281252 -29.859375l3.203125 0l6.828127 26.140625l7.625 -26.140625l3.328125 0l7.421875 26.140625l6.875 -26.140625l3.1874962 0z" fill-rule="nonzero"/></g></svg>