<svg version="1.1" viewBox="0.0 0.0 32.0 32.0" fill="none" stroke="none" stroke-linecap="square" stroke-miterlimit="10" xmlns:xlink="http://www.w3.org/1999/xlink" xmlns="http://www.w3.org/2000/svg"><clipPath id="p.0"><path d="m0 0l32.0 0l0 32.0l-32.0 0l0 -32.0z" clip-rule="nonzero"/></clipPath><g clip-path="url(#p.0)"><path fill="#000000" fill-opacity="0.0" d="m0 0l32.0 0l0 32.0l-32.0 0z" fill-rule="evenodd"/><path fill="#000000" fill-opacity="0.0" d="m-3.8267717 -2.976378l40.22047 0l0 32.0l-40.22047 0z" fill-rule="evenodd"/><path fill="#000000" d="m10.306003 12.634247l-4.359375 0l0 15.109375l-2.59375 0l0 -15.109375l-3.0625 0l0 -1.171875l3.0625 -0.9375l0 -0.953125q0 -6.3125005 5.515625 -6.3125005q1.359375 0 3.1875 0.546875l-0.671875 2.078125q-1.5 -0.484375 -2.5625 -0.484375q-1.46875 0 -2.171875 0.984375q-0.703125 0.96875 -0.703125 3.1250005l0 1.109375l4.359375 0l0 2.015625z" fill-rule="nonzero"/><path fill="#ff9900" d="m12.665378 26.368622q0 -0.875 0.390625 -1.328125q0.390625 -0.453125 1.140625 -0.453125q0.75 0 1.171875 0.453125q0.421875 0.453125 0.421875 1.328125q0 0.84375 -0.4375 1.296875q-0.421875 0.453125 -1.15625 0.453125q-0.671875 0 -1.109375 -0.40625q-0.421875 -0.40625 -0.421875 -1.34375zm13.421708 1.640625q-3.15625 0 -4.984375 -1.921875q-1.828125 -1.9375 -1.828125 -5.359375q0 -3.453125 1.6875 -5.484375q1.703125 -2.03125 4.5625 -2.03125q2.6875 0 4.25 1.765625q1.5625 1.765625 1.5625 4.65625l0 1.375l-9.828125 0q0.0625 2.5 1.265625 3.8125q1.203125 1.296875 3.390625 1.296875q2.3125 0 4.5625 -0.96875l0 1.9375q-1.140625 0.484375 -2.171875 0.703125q-1.015625 0.21875 -2.46875 0.21875zm-0.578125 -12.984375q-1.71875 0 -2.75 1.125q-1.015625 1.109375 -1.203125 3.09375l7.46875 0q0 -2.046875 -0.921875 -3.125q-0.90625 -1.09375 -2.59375 -1.09375z" fill-rule="nonzero"/></g></svg>